<svg xmlns="http://www.w3.org/2000/svg" width="1456" height="1498" viewBox="0 0 1456 1498">
<rect width="1456" height="1498" fill="#ffffff"/>
<g font-family="Helvetica Neue, Helvetica, Arial, sans-serif">
<text x="28" y="38" font-size="22" font-weight="600" fill="#22222a">Floor Plan - Capture c7d28f72c6</text>
<text x="28" y="62" font-size="12" fill="#7a7a86">Tier: LIDAR | Total Floor Area: 31.57 m²</text>
<line x1="28" y1="82" x2="1428" y2="82" stroke="#dedcd4" stroke-width="1"/>
<polygon points="416.89,682.26 565.41,444.45 931.11,696.86 735.86,902.42 633.87,832.02 672.90,775.46 589.06,717.60 550.02,774.15 488.16,731.45 527.20,674.90 518.92,669.18 479.88,725.74" stroke="none" fill="#f4f1ea"/>
<polygon points="787.70,484.51 823.61,377.77 895.37,273.80 1151.30,450.44 1138.68,474.31 996.87,628.88" stroke="none" fill="#eceadf"/>
<polygon points="646.37,983.54 719.93,906.40 728.86,912.56 735.86,902.42 1349.97,1326.28 1349.97,1341.26 873.77,1012.58 824.21,1106.29 1238.80,1392.44 1207.29,1392.44 658.89,1013.93 669.06,999.20" stroke="none" fill="#f4f1ea"/>
<polygon points="106.03,504.19 162.95,421.72 454.10,622.68 405.18,693.56" stroke="none" fill="#eceadf"/>
<polygon points="489.05,395.09 622.30,202.03 718.56,268.48 590.68,453.76 555.00,440.62" stroke="none" fill="#f4f1ea"/>
<polygon points="736.46,562.51 742.42,550.12 787.70,484.51 995.78,628.13 976.71,648.92 932.08,618.12 894.96,671.91" stroke="none" fill="#eceadf"/>
<polygon points="416.89,682.26 565.41,444.45 931.11,696.86 735.86,902.42 633.87,832.02 672.90,775.46 589.06,717.60 550.02,774.15 488.16,731.45 527.20,674.90 518.92,669.18 479.88,725.74" stroke="#22222a" stroke-width="10.73" stroke-linejoin="round" stroke-linecap="round" fill="none"/>
<polygon points="787.70,484.51 823.61,377.77 895.37,273.80 1151.30,450.44 1138.68,474.31 996.87,628.88" stroke="#22222a" stroke-width="10.73" stroke-linejoin="round" stroke-linecap="round" fill="none"/>
<polygon points="646.37,983.54 719.93,906.40 728.86,912.56 735.86,902.42 1349.97,1326.28 1349.97,1341.26 873.77,1012.58 824.21,1106.29 1238.80,1392.44 1207.29,1392.44 658.89,1013.93 669.06,999.20" stroke="#22222a" stroke-width="10.73" stroke-linejoin="round" stroke-linecap="round" fill="none"/>
<polygon points="106.03,504.19 162.95,421.72 454.10,622.68 405.18,693.56" stroke="#22222a" stroke-width="10.73" stroke-linejoin="round" stroke-linecap="round" fill="none"/>
<polygon points="489.05,395.09 622.30,202.03 718.56,268.48 590.68,453.76 555.00,440.62" stroke="#22222a" stroke-width="10.73" stroke-linejoin="round" stroke-linecap="round" fill="none"/>
<polygon points="736.46,562.51 742.42,550.12 787.70,484.51 995.78,628.13 976.71,648.92 932.08,618.12 894.96,671.91" stroke="#22222a" stroke-width="10.73" stroke-linejoin="round" stroke-linecap="round" fill="none"/>
<line x1="576.53" y1="452.13" x2="632.73" y2="490.91" stroke="#ffffff" stroke-width="13.41" stroke-linejoin="round" stroke-linecap="round" fill="none"/>
<line x1="576.53" y1="452.13" x2="632.73" y2="490.91" stroke="#22222a" stroke-width="1.76" stroke-linejoin="round" stroke-linecap="round" fill="none"/>
<line x1="576.53" y1="452.13" x2="537.75" y2="508.32" stroke="#8a8a96" stroke-width="1.17" stroke-linejoin="round" stroke-linecap="round" fill="none"/>
<path d="M 632.73 490.91 A 68.28 68.28 0 1 0 537.75 508.32" stroke="#8a8a96" stroke-width="0.98" stroke-linejoin="round" stroke-linecap="round" fill="none" stroke-dasharray="5.85,4.88"/>
<line x1="881.87" y1="748.70" x2="852.32" y2="779.81" stroke="#ffffff" stroke-width="13.41" stroke-linejoin="round" stroke-linecap="round" fill="none"/>
<line x1="883.58" y1="750.32" x2="854.03" y2="781.44" stroke="#3d6fa8" stroke-width="2.15" stroke-linejoin="round" stroke-linecap="round" fill="none"/>
<line x1="880.16" y1="747.07" x2="850.60" y2="778.19" stroke="#3d6fa8" stroke-width="2.15" stroke-linejoin="round" stroke-linecap="round" fill="none"/>
<line x1="765.01" y1="871.73" x2="739.48" y2="898.61" stroke="#ffffff" stroke-width="13.41" stroke-linejoin="round" stroke-linecap="round" fill="none"/>
<line x1="766.72" y1="873.36" x2="741.19" y2="900.23" stroke="#3d6fa8" stroke-width="2.15" stroke-linejoin="round" stroke-linecap="round" fill="none"/>
<line x1="763.29" y1="870.11" x2="737.77" y2="896.98" stroke="#3d6fa8" stroke-width="2.15" stroke-linejoin="round" stroke-linecap="round" fill="none"/>
<line x1="1023.77" y1="1265.77" x2="845.55" y2="1142.77" stroke="#ffffff" stroke-width="13.41" stroke-linejoin="round" stroke-linecap="round" fill="none"/>
<line x1="1022.43" y1="1267.71" x2="844.21" y2="1144.71" stroke="#3d6fa8" stroke-width="2.15" stroke-linejoin="round" stroke-linecap="round" fill="none"/>
<line x1="1025.11" y1="1263.83" x2="846.89" y2="1140.82" stroke="#3d6fa8" stroke-width="2.15" stroke-linejoin="round" stroke-linecap="round" fill="none"/>
<line x1="694.14" y1="251.62" x2="718.56" y2="268.48" stroke="#ffffff" stroke-width="13.41" stroke-linejoin="round" stroke-linecap="round" fill="none"/>
<line x1="695.48" y1="249.67" x2="719.91" y2="266.53" stroke="#3d6fa8" stroke-width="2.15" stroke-linejoin="round" stroke-linecap="round" fill="none"/>
<line x1="692.80" y1="253.56" x2="717.22" y2="270.42" stroke="#3d6fa8" stroke-width="2.15" stroke-linejoin="round" stroke-linecap="round" fill="none"/>
<line x1="932.08" y1="618.12" x2="894.96" y2="671.91" stroke="#ffffff" stroke-width="13.41" stroke-linejoin="round" stroke-linecap="round" fill="none"/>
<line x1="934.03" y1="619.46" x2="896.90" y2="673.25" stroke="#3d6fa8" stroke-width="2.15" stroke-linejoin="round" stroke-linecap="round" fill="none"/>
<line x1="930.14" y1="616.78" x2="893.02" y2="670.57" stroke="#3d6fa8" stroke-width="2.15" stroke-linejoin="round" stroke-linecap="round" fill="none"/>
<text x="668.69" y="643.41" font-size="13.0" fill="#1b1b1f" text-anchor="middle" font-weight="bold">Room 01</text>
<text x="668.69" y="670.72" font-size="11.0" fill="#1b1b1f" text-anchor="middle" font-weight="normal">11.44 m2</text>
<text x="668.69" y="698.03" font-size="9.0" fill="#7a7a86" text-anchor="middle" font-weight="normal">h 2.980 m  [2.930, 3.031]</text>
<text x="507.70" y="573.69" font-size="8.5" fill="#7a7a86" text-anchor="middle" font-weight="normal" transform="rotate(-58.02 507.70 573.69)">2.87 ±4.3cm</text>
<text x="737.18" y="586.71" font-size="8.5" fill="#7a7a86" text-anchor="middle" font-weight="normal" transform="rotate(34.61 737.18 586.71)">4.56 ±3.4cm</text>
<text x="819.34" y="786.20" font-size="8.5" fill="#7a7a86" text-anchor="middle" font-weight="normal" transform="rotate(-46.47 819.34 786.20)">2.91 ±4.0cm</text>
<text x="695.95" y="851.16" font-size="8.5" fill="#7a7a86" text-anchor="middle" font-weight="normal" transform="rotate(-325.39 695.95 851.16)">1.27 ±4.6cm</text>
<text x="637.33" y="792.66" font-size="8.5" fill="#7a7a86" text-anchor="middle" font-weight="normal" transform="rotate(-55.39 637.33 792.66)">0.70 ±2.1cm</text>
<text x="642.06" y="730.47" font-size="8.5" fill="#7a7a86" text-anchor="middle" font-weight="normal" transform="rotate(-325.39 642.06 730.47)">1.04 ±3.1cm</text>
<text x="585.60" y="756.96" font-size="8.5" fill="#7a7a86" text-anchor="middle" font-weight="normal" transform="rotate(-55.39 585.60 756.96)">0.70 ±2.1cm</text>
<text x="530.17" y="736.75" font-size="8.5" fill="#7a7a86" text-anchor="middle" font-weight="normal" transform="rotate(-325.39 530.17 736.75)">0.77 ±4.6cm</text>
<text x="523.73" y="714.26" font-size="8.5" fill="#7a7a86" text-anchor="middle" font-weight="normal" transform="rotate(-55.39 523.73 714.26)">0.70 ±2.1cm</text>
<text x="515.45" y="708.54" font-size="8.5" fill="#7a7a86" text-anchor="middle" font-weight="normal" transform="rotate(-55.39 515.45 708.54)">0.70 ±2.1cm</text>
<text x="459.47" y="687.95" font-size="8.5" fill="#7a7a86" text-anchor="middle" font-weight="normal" transform="rotate(-325.39 459.47 687.95)">0.78 ±4.6cm</text>
<text x="957.87" y="425.32" font-size="13.0" fill="#1b1b1f" text-anchor="middle" font-weight="bold">Room 02</text>
<text x="957.87" y="452.63" font-size="11.0" fill="#1b1b1f" text-anchor="middle" font-weight="normal">7.25 m2</text>
<text x="957.87" y="479.95" font-size="9.0" fill="#7a7a86" text-anchor="middle" font-weight="normal">h 2.845 m  [2.779, 2.911]</text>
<text x="824.14" y="437.36" font-size="8.5" fill="#7a7a86" text-anchor="middle" font-weight="normal" transform="rotate(-71.41 824.14 437.36)">1.15 ±3.5cm</text>
<text x="875.55" y="336.86" font-size="8.5" fill="#7a7a86" text-anchor="middle" font-weight="normal" transform="rotate(-55.39 875.55 336.86)">1.30 ±3.8cm</text>
<text x="1012.26" y="378.18" font-size="8.5" fill="#7a7a86" text-anchor="middle" font-weight="normal" transform="rotate(34.61 1012.26 378.18)">3.19 ±3.2cm</text>
<text x="1053.40" y="538.41" font-size="8.5" fill="#7a7a86" text-anchor="middle" font-weight="normal" transform="rotate(-47.47 1053.40 538.41)">2.15 ±3.8cm</text>
<text x="903.36" y="540.64" font-size="8.5" fill="#7a7a86" text-anchor="middle" font-weight="normal" transform="rotate(-325.39 903.36 540.64)">2.61 ±7.8cm</text>
<text x="967.82" y="1187.02" font-size="13.0" fill="#1b1b1f" text-anchor="middle" font-weight="bold">Room 03</text>
<text x="967.82" y="1214.33" font-size="11.0" fill="#1b1b1f" text-anchor="middle" font-weight="normal">4.48 m2</text>
<text x="967.82" y="1241.64" font-size="9.0" fill="#7a7a86" text-anchor="middle" font-weight="normal">h 2.879 m  [2.731, 3.028]</text>
<text x="697.27" y="958.43" font-size="8.5" fill="#7a7a86" text-anchor="middle" font-weight="normal" transform="rotate(-46.36 697.27 958.43)">1.09 ±3.3cm</text>
<text x="1031.83" y="1130.40" font-size="8.5" fill="#7a7a86" text-anchor="middle" font-weight="normal" transform="rotate(34.61 1031.83 1130.40)">7.65 ±22.9cm</text>
<text x="1100.79" y="1192.97" font-size="8.5" fill="#7a7a86" text-anchor="middle" font-weight="normal" transform="rotate(-325.39 1100.79 1192.97)">5.93 ±17.8cm</text>
<text x="866.23" y="1068.55" font-size="8.5" fill="#7a7a86" text-anchor="middle" font-weight="normal" transform="rotate(-62.12 866.23 1068.55)">1.09 ±3.3cm</text>
<text x="1042.58" y="1233.31" font-size="8.5" fill="#7a7a86" text-anchor="middle" font-weight="normal" transform="rotate(34.61 1042.58 1233.31)">5.16 ±15.5cm</text>
<text x="944.17" y="1187.13" font-size="8.5" fill="#7a7a86" text-anchor="middle" font-weight="normal" transform="rotate(-325.39 944.17 1187.13)">6.83 ±5.7cm</text>
<text x="278.35" y="528.82" font-size="13.0" fill="#1b1b1f" text-anchor="middle" font-weight="bold">Room 04</text>
<text x="278.35" y="556.13" font-size="11.0" fill="#1b1b1f" text-anchor="middle" font-weight="normal">3.46 m2</text>
<text x="278.35" y="583.44" font-size="9.0" fill="#d98324" text-anchor="middle" font-weight="normal">ceiling unmeasured</text>
<text x="150.55" y="474.03" font-size="8.5" fill="#7a7a86" text-anchor="middle" font-weight="normal" transform="rotate(-55.39 150.55 474.03)">1.03 ±3.1cm</text>
<text x="297.45" y="538.25" font-size="8.5" fill="#7a7a86" text-anchor="middle" font-weight="normal" transform="rotate(34.61 297.45 538.25)">3.63 ±3.7cm</text>
<text x="413.59" y="647.04" font-size="8.5" fill="#7a7a86" text-anchor="middle" font-weight="normal" transform="rotate(-55.39 413.59 647.04)">0.88 ±2.6cm</text>
<text x="266.04" y="582.39" font-size="8.5" fill="#7a7a86" text-anchor="middle" font-weight="normal" transform="rotate(-327.66 266.04 582.39)">3.63 ±4.2cm</text>
<text x="603.98" y="301.76" font-size="13.0" fill="#1b1b1f" text-anchor="middle" font-weight="bold">Room 05</text>
<text x="603.98" y="329.07" font-size="11.0" fill="#1b1b1f" text-anchor="middle" font-weight="normal">2.87 m2</text>
<text x="603.98" y="356.38" font-size="9.0" fill="#d98324" text-anchor="middle" font-weight="normal">ceiling unmeasured</text>
<text x="571.73" y="309.64" font-size="8.5" fill="#7a7a86" text-anchor="middle" font-weight="normal" transform="rotate(-55.39 571.73 309.64)">2.40 ±2.5cm</text>
<text x="659.35" y="251.31" font-size="8.5" fill="#7a7a86" text-anchor="middle" font-weight="normal" transform="rotate(34.61 659.35 251.31)">1.20 ±2.6cm</text>
<text x="638.57" y="350.04" font-size="8.5" fill="#7a7a86" text-anchor="middle" font-weight="normal" transform="rotate(-55.39 638.57 350.04)">2.31 ±6.9cm</text>
<text x="533.10" y="401.80" font-size="8.5" fill="#7a7a86" text-anchor="middle" font-weight="normal" transform="rotate(-325.39 533.10 401.80)">0.82 ±1.6cm</text>
<text x="851.11" y="552.48" font-size="13.0" fill="#1b1b1f" text-anchor="middle" font-weight="bold">Room 06</text>
<text x="851.11" y="579.80" font-size="11.0" fill="#1b1b1f" text-anchor="middle" font-weight="normal">2.07 m2</text>
<text x="851.11" y="607.11" font-size="9.0" fill="#7a7a86" text-anchor="middle" font-weight="normal">h 2.855 m  [2.833, 2.877]</text>
<text x="781.11" y="528.40" font-size="8.5" fill="#7a7a86" text-anchor="middle" font-weight="normal" transform="rotate(-55.39 781.11 528.40)">0.82 ±2.5cm</text>
<text x="880.66" y="572.38" font-size="8.5" fill="#7a7a86" text-anchor="middle" font-weight="normal" transform="rotate(34.61 880.66 572.38)">2.59 ±7.8cm</text>
<text x="943.32" y="649.58" font-size="8.5" fill="#7a7a86" text-anchor="middle" font-weight="normal" transform="rotate(-325.39 943.32 649.58)">0.56 ±1.7cm</text>
<text x="897.47" y="633.93" font-size="8.5" fill="#7a7a86" text-anchor="middle" font-weight="normal" transform="rotate(-55.39 897.47 633.93)">0.67 ±4.2cm</text>
<text x="826.79" y="601.15" font-size="8.5" fill="#7a7a86" text-anchor="middle" font-weight="normal" transform="rotate(-325.39 826.79 601.15)">1.97 ±2.7cm</text>
<circle cx="942.08" cy="660.57" r="40.97" stroke="#c0392b" stroke-width="1.76" stroke-linejoin="round" stroke-linecap="round" fill="#e8b4ae" opacity="0.85"/>
<text x="942.08" y="606.92" font-size="8.0" fill="#c0392b" text-anchor="middle" font-weight="normal">crack</text>
<line x1="668.69" y1="672.67" x2="967.82" y2="1216.28" stroke="#7a7a86" stroke-width="0.78" stroke-linejoin="round" stroke-linecap="round" fill="none" stroke-dasharray="9.75,9.75" opacity="0.50"/>
<line x1="668.69" y1="672.67" x2="851.11" y2="581.75" stroke="#7a7a86" stroke-width="0.78" stroke-linejoin="round" stroke-linecap="round" fill="none" stroke-dasharray="9.75,9.75" opacity="0.50"/>
<line x1="957.87" y1="454.59" x2="851.11" y2="581.75" stroke="#7a7a86" stroke-width="0.78" stroke-linejoin="round" stroke-linecap="round" fill="none" stroke-dasharray="9.75,9.75" opacity="0.50"/>
<line x1="957.87" y1="454.59" x2="603.98" y2="331.02" stroke="#7a7a86" stroke-width="0.78" stroke-linejoin="round" stroke-linecap="round" fill="none" stroke-dasharray="9.75,9.75" opacity="0.50"/>
<line x1="668.69" y1="672.67" x2="603.98" y2="331.02" stroke="#7a7a86" stroke-width="0.78" stroke-linejoin="round" stroke-linecap="round" fill="none" stroke-dasharray="9.75,9.75" opacity="0.50"/>
<line x1="668.69" y1="672.67" x2="278.35" y2="558.08" stroke="#7a7a86" stroke-width="0.78" stroke-linejoin="round" stroke-linecap="round" fill="none" stroke-dasharray="9.75,9.75" opacity="0.50"/>
<line x1="967.82" y1="1216.28" x2="278.35" y2="558.08" stroke="#7a7a86" stroke-width="0.78" stroke-linejoin="round" stroke-linecap="round" fill="none" stroke-dasharray="9.75,9.75" opacity="0.50"/>
<g><line x1="28" y1="1478" x2="515.7" y2="1478" stroke="#22222a" stroke-width="2"/><line x1="28" y1="1474" x2="28" y2="1482" stroke="#22222a" stroke-width="2"/><line x1="515.7" y1="1474" x2="515.7" y2="1482" stroke="#22222a" stroke-width="2"/><text x="523.7" y="1482" font-size="11" fill="#7a7a86">5 m</text></g>
</g></svg>