<svg xmlns="http://www.w3.org/2000/svg" width="1456" height="1312" viewBox="0 0 1456 1312">
<rect width="1456" height="1312" fill="#ffffff"/>
<g font-family="Helvetica Neue, Helvetica, Arial, sans-serif">
<text x="28" y="38" font-size="22" font-weight="600" fill="#22222a">Floor Plan - Capture room</text>
<text x="28" y="62" font-size="12" fill="#7a7a86">Tier: VIDEO | Total Floor Area: 339.61 m²</text>
<line x1="28" y1="82" x2="1428" y2="82" stroke="#dedcd4" stroke-width="1"/>
<polygon points="72.64,490.21 72.64,168.64 1383.36,168.64 1383.36,752.73 571.31,823.77 514.35,816.40" stroke="none" fill="#f4f1ea"/>
<polygon points="73.80,1239.39 73.80,858.44 530.47,818.49 1100.45,1239.39" stroke="none" fill="#eceadf"/>
<polygon points="72.64,490.21 72.64,168.64 1383.36,168.64 1383.36,752.73 571.31,823.77 514.35,816.40" stroke="#22222a" stroke-width="6.14" stroke-linejoin="round" stroke-linecap="round" fill="none"/>
<polygon points="73.80,1239.39 73.80,858.44 530.47,818.49 1100.45,1239.39" stroke="#22222a" stroke-width="6.14" stroke-linejoin="round" stroke-linecap="round" fill="none"/>
<text x="763.75" y="446.16" font-size="13.0" fill="#1b1b1f" text-anchor="middle" font-weight="bold">Room 01</text>
<text x="763.75" y="461.79" font-size="11.0" fill="#1b1b1f" text-anchor="middle" font-weight="normal">242.28 m2</text>
<text x="763.75" y="477.41" font-size="9.0" fill="#7a7a86" text-anchor="middle" font-weight="normal">h 3.999 m  [1.600, 6.398]</text>
<text x="83.80" y="329.43" font-size="8.5" fill="#7a7a86" text-anchor="middle" font-weight="normal" transform="rotate(-270.00 83.80 329.43)">5.76 ±345.8cm</text>
<text x="728.00" y="179.80" font-size="8.5" fill="#7a7a86" text-anchor="middle" font-weight="normal">23.49 ±1409.4cm</text>
<text x="1372.20" y="460.68" font-size="8.5" fill="#7a7a86" text-anchor="middle" font-weight="normal" transform="rotate(90.00 1372.20 460.68)">10.47 ±628.1cm</text>
<text x="976.36" y="777.13" font-size="8.5" fill="#7a7a86" text-anchor="middle" font-weight="normal" transform="rotate(-5.00 976.36 777.13)">14.61 ±876.5cm</text>
<text x="544.26" y="809.02" font-size="8.5" fill="#7a7a86" text-anchor="middle" font-weight="normal" transform="rotate(-352.63 544.26 809.02)">1.03 ±61.8cm</text>
<text x="300.13" y="644.33" font-size="8.5" fill="#7a7a86" text-anchor="middle" font-weight="normal" transform="rotate(-323.56 300.13 644.33)">9.84 ±590.4cm</text>
<text x="470.01" y="1045.90" font-size="13.0" fill="#1b1b1f" text-anchor="middle" font-weight="bold">Room 02</text>
<text x="470.01" y="1061.53" font-size="11.0" fill="#1b1b1f" text-anchor="middle" font-weight="normal">97.33 m2</text>
<text x="470.01" y="1077.15" font-size="9.0" fill="#7a7a86" text-anchor="middle" font-weight="normal">h 4.410 m  [1.764, 7.055]</text>
<text x="84.96" y="1048.92" font-size="8.5" fill="#7a7a86" text-anchor="middle" font-weight="normal" transform="rotate(-270.00 84.96 1048.92)">6.83 ±409.6cm</text>
<text x="303.11" y="849.58" font-size="8.5" fill="#7a7a86" text-anchor="middle" font-weight="normal" transform="rotate(-5.00 303.11 849.58)">8.22 ±492.9cm</text>
<text x="808.83" y="1037.92" font-size="8.5" fill="#7a7a86" text-anchor="middle" font-weight="normal" transform="rotate(36.44 808.83 1037.92)">12.70 ±761.9cm</text>
<text x="587.12" y="1228.23" font-size="8.5" fill="#7a7a86" text-anchor="middle" font-weight="normal">18.40 ±1103.9cm</text>
<line x1="763.75" y1="462.90" x2="470.01" y2="1062.64" stroke="#7a7a86" stroke-width="0.45" stroke-linejoin="round" stroke-linecap="round" fill="none" stroke-dasharray="5.58,5.58" opacity="0.50"/>
<g><line x1="28" y1="1292" x2="307.0" y2="1292" stroke="#22222a" stroke-width="2"/><line x1="28" y1="1288" x2="28" y2="1296" stroke="#22222a" stroke-width="2"/><line x1="307.0" y1="1288" x2="307.0" y2="1296" stroke="#22222a" stroke-width="2"/><text x="315.0" y="1296" font-size="11" fill="#7a7a86">5 m</text></g>
</g></svg>