<svg xmlns="http://www.w3.org/2000/svg" width="911" height="1552" viewBox="0 0 911 1552">
<rect width="911" height="1552" fill="#ffffff"/>
<g font-family="Helvetica Neue, Helvetica, Arial, sans-serif">
<text x="28" y="38" font-size="22" font-weight="600" fill="#22222a">Floor Plan - Capture 5621ec5c54</text>
<text x="28" y="62" font-size="12" fill="#7a7a86">Tier: LIDAR | Total Floor Area: 11.51 m²</text>
<line x1="28" y1="82" x2="883" y2="82" stroke="#dedcd4" stroke-width="1"/>
<polygon points="198.66,1078.64 763.79,1025.06 734.02,1356.24 229.51,1404.07" stroke="none" fill="#f4f1ea"/>
<polygon points="147.93,243.93 248.32,243.93 326.31,1066.54 226.81,1075.97" stroke="none" fill="#eceadf"/>
<polygon points="198.66,1078.64 763.79,1025.06 734.02,1356.24 229.51,1404.07" stroke="#22222a" stroke-width="16.49" stroke-linejoin="round" stroke-linecap="round" fill="none"/>
<polygon points="147.93,243.93 248.32,243.93 326.31,1066.54 226.81,1075.97" stroke="#22222a" stroke-width="16.49" stroke-linejoin="round" stroke-linecap="round" fill="none"/>
<text x="481.49" y="1167.93" font-size="13.0" fill="#1b1b1f" text-anchor="middle" font-weight="bold">Room 01</text>
<text x="481.49" y="1209.90" font-size="11.0" fill="#1b1b1f" text-anchor="middle" font-weight="normal">7.81 m2</text>
<text x="481.49" y="1251.88" font-size="9.0" fill="#7a7a86" text-anchor="middle" font-weight="normal">h 2.606 m  [2.564, 2.649]</text>
<text x="484.05" y="1081.70" font-size="8.5" fill="#7a7a86" text-anchor="middle" font-weight="normal" transform="rotate(-5.42 484.05 1081.70)">3.79 ±3.3cm</text>
<text x="719.04" y="1187.97" font-size="8.5" fill="#7a7a86" text-anchor="middle" font-weight="normal" transform="rotate(-84.86 719.04 1187.97)">2.22 ±4.0cm</text>
<text x="478.93" y="1350.31" font-size="8.5" fill="#7a7a86" text-anchor="middle" font-weight="normal" transform="rotate(-5.42 478.93 1350.31)">3.38 ±3.3cm</text>
<text x="243.93" y="1238.52" font-size="8.5" fill="#7a7a86" text-anchor="middle" font-weight="normal" transform="rotate(-275.42 243.93 1238.52)">2.18 ±4.3cm</text>
<text x="237.25" y="612.62" font-size="13.0" fill="#1b1b1f" text-anchor="middle" font-weight="bold">Room 02</text>
<text x="237.25" y="654.60" font-size="11.0" fill="#1b1b1f" text-anchor="middle" font-weight="normal">3.70 m2</text>
<text x="237.25" y="696.57" font-size="9.0" fill="#d98324" text-anchor="middle" font-weight="normal">ceiling unmeasured</text>
<text x="198.13" y="273.92" font-size="8.5" fill="#7a7a86" text-anchor="middle" font-weight="normal">0.67 ±2.0cm</text>
<text x="257.47" y="658.06" font-size="8.5" fill="#7a7a86" text-anchor="middle" font-weight="normal" transform="rotate(84.58 257.47 658.06)">5.51 ±4.5cm</text>
<text x="273.73" y="1041.40" font-size="8.5" fill="#7a7a86" text-anchor="middle" font-weight="normal" transform="rotate(-5.42 273.73 1041.40)">0.67 ±2.0cm</text>
<text x="217.22" y="657.12" font-size="8.5" fill="#7a7a86" text-anchor="middle" font-weight="normal" transform="rotate(-275.42 217.22 657.12)">5.57 ±16.7cm</text>
<line x1="481.49" y1="1212.90" x2="237.25" y2="657.60" stroke="#7a7a86" stroke-width="1.20" stroke-linejoin="round" stroke-linecap="round" fill="none" stroke-dasharray="14.99,14.99" opacity="0.50"/>
<g><line x1="28" y1="1532" x2="177.9" y2="1532" stroke="#22222a" stroke-width="2"/><line x1="28" y1="1528" x2="28" y2="1536" stroke="#22222a" stroke-width="2"/><line x1="177.9" y1="1528" x2="177.9" y2="1536" stroke="#22222a" stroke-width="2"/><text x="185.9" y="1536" font-size="11" fill="#7a7a86">1 m</text></g>
</g></svg>